<?xml version="1.0" encoding="UTF-8"?>
<svg version="1.1" xmlns="http://www.w3.org/2000/svg" width="648" height="256">
<path d="M0 0 C96.03 0 192.06 0 291 0 C291 0.33 291 0.66 291 1 C289.40285156 1.31130859 289.40285156 1.31130859 287.7734375 1.62890625 C269.61157691 5.38587938 254.02856558 13.19913934 243.23828125 28.859375 C235.5527926 42.14533015 233.12092751 56.89144372 236.68359375 71.875 C240.07830176 82.49666418 246.30714944 91.04860621 256.0625 96.5625 C270.66019313 103.70605196 288.13100166 104.42092127 303.875 100.4375 C313.9811258 96.95008842 323.27277356 90.01165555 328.9375 80.875 C329.99600249 78.0108168 330.26663247 76.02183472 330 73 C328.35 73 326.7 73 325 73 C324.87625 73.54527344 324.7525 74.09054688 324.625 74.65234375 C322.2049156 83.50077734 316.83277734 89.44452656 309.1875 94.375 C297.20651928 100.91999705 283.70358644 101.78799334 270.5 98.75 C259.00797091 95.37363566 249.91491466 89.18588639 243.5 78.8125 C237.4697709 67.72027577 236.87141048 56.17613218 240 44 C245.25778622 28.30211195 256.63000282 17.01941027 270.98828125 9.41796875 C289.52165906 1.11682118 311.85268061 0.09221859 331 7 C340.7359147 10.97341318 348.6020572 16.50790156 356 24 C356.82113281 24.81597656 357.64226562 25.63195312 358.48828125 26.47265625 C369.30684614 37.3585217 377.7653726 49.25560982 386.3359375 61.9296875 C396.09867123 76.35094 406.56890302 89.7395817 419 102 C418.3709375 103.13953125 417.741875 104.2790625 417.09375 105.453125 C410.81642656 117.00177478 405.6377238 128.70614557 401 141 C399.81052918 138.66641954 398.74162116 136.36697184 397.75 133.9375 C395.51995776 130.1942148 394.16220132 129.28649859 390 128 C381.19709595 127.36144737 374.67820919 131.13293192 368.0625 136.6015625 C357.87457668 146.19822241 348.94845462 160.60008485 347.6640625 174.68359375 C347.26865656 185.12818172 347.26865656 185.12818172 352 194 C356.61413423 196.92261864 361.62000813 197.66070076 367 197 C376.30639377 194.21305855 382.05727122 188.1060752 387 180 C387.98642196 182.95926587 387.97680923 184.3543135 387.75 187.375 C387.7201251 191.03766265 387.91066951 191.86735775 390.0625 195.0625 C393.7685117 197.5068907 395.6293867 197.61341941 400 197 C405.45563428 195.10722892 408.81306119 191.69133228 412 187 C413.39205064 183.75381554 413.39205064 183.75381554 414 181 C411.9763756 182.91711786 410.38134454 184.81930048 408.6875 187.0625 C405.79399995 190.22516284 404.22008207 191.37147714 400 192 C397.625 191.125 397.625 191.125 396 189 C395.37404929 181.98614204 397.12587657 176.14554483 399.25 169.5 C399.600625 168.3850415 399.95125 167.27008301 400.3125 166.12133789 C406.87843826 145.65759066 414.19416515 125.15021865 424 106 C429.38421515 107.74601245 434.61970826 109.79133296 439.87890625 111.87890625 C449.95961087 115.49988525 464.8869465 116.18081464 474.9375 112.25 C476.31563978 111.54501908 477.67482237 110.80010725 479 110 C480.0725 109.4225 481.145 108.845 482.25 108.25 C488.83999853 102.85818302 492.60293813 96.42267107 494 88 C494.25543046 82.0931707 492.35370405 77.71331379 489 73 C480.42025368 66.34631918 470.40918779 67.22005473 460 68 C455.96294412 68.80833499 452.63384011 70.08998156 449 72 C448.18917969 72.38929687 447.37835938 72.77859375 446.54296875 73.1796875 C436.87199647 78.32738613 428.79167551 86.7772371 423 96 C413.24379223 88.27633551 406.54791569 78.07959633 399.42431641 68.00830078 C367.72273029 23.10810317 367.72273029 23.10810317 319 1 C319 0.67 319 0.34 319 0 C427.57 0 536.14 0 648 0 C648 68.64 648 137.28 648 208 C647.67 207.34 647.34 206.68 647 206 C644.03 206.99 644.03 206.99 641 208 C640.92523437 208.76183594 640.85046875 209.52367187 640.7734375 210.30859375 C639.68338303 218.86872735 637.57037724 225.13595379 630.8515625 230.81640625 C624.34328763 235.42550876 618.05541674 237.68266244 610 237 C592.26214538 233.43445152 579.27038283 219.60717827 567.01904297 207.22485352 C565.24372999 205.43116509 563.46042544 203.64572804 561.67578125 201.86132812 C547.28348849 187.42523273 547.28348849 187.42523273 543 181 C543.65484375 180.69449219 544.3096875 180.38898438 544.984375 180.07421875 C560.25654433 172.41656322 572.53814567 159.38556298 578 143 C578.14328384 141.17037564 578.22040343 139.33498763 578.25 137.5 C578.27578125 136.5409375 578.3015625 135.581875 578.328125 134.59375 C578.22087238 131.96980776 578.22087238 131.96980776 576.609375 130.21875 C572.05362355 126.76876347 566.46493574 127.49944754 561 128 C553.65706998 130.31188498 548.26284793 135.58678499 543 141 C542.95101562 140.31292969 542.90203125 139.62585938 542.8515625 138.91796875 C542.77679687 138.01691406 542.70203125 137.11585938 542.625 136.1875 C542.52058594 134.84751953 542.52058594 134.84751953 542.4140625 133.48046875 C542.13354964 130.75601501 542.13354964 130.75601501 540 128 C535.64326156 127.03280407 531.8575961 127.58835387 527.875 129.5 C523.47775288 133.32369315 518.87312123 137.3806363 517 143 C517.99 143 518.98 143 520 143 C520.26167969 142.41863281 520.52335938 141.83726562 520.79296875 141.23828125 C522.8093045 137.49925088 525.59965896 134.5374588 529 132 C531.875 132 531.875 132 534 133 C535 134 535 134 535.19921875 137.12329102 C534.99065611 141.18182804 534.17050834 144.2079453 532.8125 148.02734375 C532.47955933 148.97801476 532.47955933 148.97801476 532.13989258 149.94789124 C531.43674854 151.94819081 530.7187006 153.94274407 530 155.9375 C529.51722903 157.30238103 529.03544854 158.66761283 528.5546875 160.03320312 C527.38120835 163.35959888 526.19431233 166.68101874 525 170 C523.72125 170.12375 522.4425 170.2475 521.125 170.375 C517.65209064 170.69042399 517.65209064 170.69042399 515 173 C514.46363559 177.72890618 514.46363559 177.72890618 516.375 181.875 C518.01178511 183.06481812 518.01178511 183.06481812 520 184 C519.52188823 185.77111844 519.0424722 187.54188483 518.5625 189.3125 C518.16224609 190.79169922 518.16224609 190.79169922 517.75390625 192.30078125 C517.21920575 194.21517526 516.62855462 196.11433615 516 198 C522.12168004 196.23062353 522.12168004 196.23062353 526.265625 191.73046875 C526.98424181 189.4935978 527.57077248 187.30894805 528 185 C531.80138936 183.21903412 534.80768049 182.42368357 539 183 C543.38023127 186.10690823 546.47488085 190.82895371 549.61279297 195.11669922 C551.5444908 197.7392119 553.61158996 200.24085656 555.6875 202.75 C556.75871094 204.06677734 556.75871094 204.06677734 557.8515625 205.41015625 C561.43524051 209.73011719 565.17805256 213.8903791 569 218 C569.65742187 218.7115625 570.31484375 219.423125 570.9921875 220.15625 C580.49097134 230.07465883 592.97609274 238.8398219 607 240 C618.01543506 240.23614426 627.97682736 237.71555096 636.5 230.5 C637.68737536 229.35441632 638.85709279 228.18995182 640 227 C640.763125 226.21625 641.52625 225.4325 642.3125 224.625 C644.65250218 220.98499661 645.80984146 217.13850584 647 213 C647.33 213 647.66 213 648 213 C648 227.19 648 241.38 648 256 C618.96 256 589.92 256 560 256 C560 247.16428022 560.1041249 238.73478227 561 230 C559.35 230 557.7 230 556 230 C556.33 230.33 556.66 230.66 557 231 C557.07313567 233.53049402 557.09247527 236.03304837 557.0625 238.5625 C557.05798828 239.27341797 557.05347656 239.98433594 557.04882812 240.71679688 C557.03700864 242.47790013 557.01907263 244.23896036 557 246 C551.94593833 241.84443819 547.29814817 237.37752009 542.7331543 232.69604492 C540.129846 230.00391915 540.129846 230.00391915 537 228 C537.00523682 228.7520874 537.01047363 229.5041748 537.01586914 230.27905273 C537.03657227 233.66519342 537.04963877 237.05132084 537.0625 240.4375 C537.07087891 241.62150391 537.07925781 242.80550781 537.08789062 244.02539062 C537.09111328 245.15009766 537.09433594 246.27480469 537.09765625 247.43359375 C537.10289307 248.47572021 537.10812988 249.51784668 537.11352539 250.59155273 C537 253 537 253 536 254 C537.98 254 539.96 254 542 254 C541.67 253.67 541.34 253.34 541 253 C540.76346477 250.47403741 540.57826308 247.96892793 540.4375 245.4375 C540.39431641 244.72658203 540.35113281 244.01566406 540.30664062 243.28320312 C540.20028223 241.52238088 540.09961154 239.7612168 540 238 C544.53665737 241.7301405 548.77941122 245.67053566 552.9375 249.8125 C553.43419189 250.30468018 553.93088379 250.79686035 554.44262695 251.30395508 C558 254.87624634 558 254.87624634 558 256 C519.06 256 480.12 256 440 256 C441.32 254.68 442.64 253.36 444 252 C444.45408835 248.82138156 444.7033536 247.0117962 444 244 C441.83333333 241.16666667 441.83333333 241.16666667 439 239 C436.625 236.9375 436.625 236.9375 435 235 C435.25 232.75 435.25 232.75 436 231 C440.55384615 230.63076923 440.55384615 230.63076923 442.8125 232.5 C443.204375 232.995 443.59625 233.49 444 234 C444 232.35 444 230.7 444 229 C442.741875 228.979375 441.48375 228.95875 440.1875 228.9375 C439.47980469 228.92589844 438.77210938 228.91429687 438.04296875 228.90234375 C435.79694539 228.91736783 435.79694539 228.91736783 433 230 C431.43064406 233.13871188 431.64798897 235.53855822 432 239 C434.20802268 241.70817728 434.20802268 241.70817728 437 244 C438.35555293 245.64864545 439.69631653 247.31003995 441 249 C440.34 250.32 439.68 251.64 439 253 C436.625 253.125 436.625 253.125 434 253 C433.34 252.34 432.68 251.68 432 251 C432 249.68 432 248.36 432 247 C431.34 247 430.68 247 430 247 C430 249.64 430 252.28 430 255 C430.66 255.33 431.32 255.66 432 256 C423.42 256 414.84 256 406 256 C409 254 409 254 411.5625 252.625 C414.26719329 250.82187114 414.84400846 249.97032804 416 247 C416.66147773 241.83893539 416.83032338 237.43159203 414.1875 232.875 C411.10989252 230.23705073 408.68260749 229.87459144 404.76953125 229.90234375 C403.96708984 229.90556641 403.16464844 229.90878906 402.33789062 229.91210938 C401.50451172 229.92048828 400.67113281 229.92886719 399.8125 229.9375 C398.5450293 229.94426758 398.5450293 229.94426758 397.25195312 229.95117188 C395.16793845 229.96294597 393.08396023 229.9808811 391 230 C391.33 230.33 391.66 230.66 392 231 C392.0991657 232.62257544 392.13079777 234.24939831 392.1328125 235.875 C392.13410156 236.85984375 392.13539063 237.8446875 392.13671875 238.859375 C392.13285156 239.89578125 392.12898438 240.9321875 392.125 242 C392.12886719 243.03640625 392.13273437 244.0728125 392.13671875 245.140625 C392.13478516 246.61789063 392.13478516 246.61789063 392.1328125 248.125 C392.13168457 249.03507813 392.13055664 249.94515625 392.12939453 250.8828125 C392 253 392 253 391 254 C392.98 254.33 394.96 254.66 397 255 C397 255.33 397 255.66 397 256 C389.08 256 381.16 256 373 256 C373.14009116 251.85389787 373.28678753 247.70821759 373.4375 243.5625 C373.49647461 241.78649414 373.49647461 241.78649414 373.55664062 239.97460938 C373.59853516 238.84990234 373.64042969 237.72519531 373.68359375 236.56640625 C373.72025146 235.52427979 373.75690918 234.48215332 373.79467773 233.40844727 C374 231 374 231 375 230 C373.02 230 371.04 230 369 230 C369.33 230.33 369.66 230.66 370 231 C370.07313567 233.53049402 370.09247527 236.03304837 370.0625 238.5625 C370.05798828 239.27341797 370.05347656 239.98433594 370.04882812 240.71679688 C370.03700864 242.47790013 370.01907263 244.23896036 370 246 C355.47272727 233.94545455 355.47272727 233.94545455 353 229 C352.34 229 351.68 229 351 229 C350.97494385 229.72179443 350.9498877 230.44358887 350.92407227 231.18725586 C350.80848698 234.437535 350.68559226 237.68749688 350.5625 240.9375 C350.52318359 242.07380859 350.48386719 243.21011719 350.44335938 244.38085938 C350.40146484 245.46044922 350.35957031 246.54003906 350.31640625 247.65234375 C350.27974854 248.65257568 350.24309082 249.65280762 350.20532227 250.68334961 C350 253 350 253 349 254 C350.98 254 352.96 254 355 254 C354.67 253.67 354.34 253.34 354 253 C353.92686433 250.46950598 353.90752473 247.96695163 353.9375 245.4375 C353.94201172 244.72658203 353.94652344 244.01566406 353.95117188 243.28320312 C353.96299136 241.52209987 353.98092737 239.76103964 354 238 C354.69480469 238.69609375 355.38960938 239.3921875 356.10546875 240.109375 C358.10128908 242.10589933 360.10501209 244.09412684 362.11328125 246.078125 C363.17970987 247.13539411 364.2461159 248.19268599 365.3125 249.25 C365.86228516 249.79140625 366.41207031 250.3328125 366.97851562 250.890625 C368.3379533 252.24161897 369.67152124 253.6185516 371 255 C371 255.33 371 255.66 371 256 C348.23 256 325.46 256 302 256 C302.66 255.67 303.32 255.34 304 255 C303.67 253.35 303.34 251.7 303 250 C302.62875 250.515625 302.2575 251.03125 301.875 251.5625 C300 253 300 253 296.8828125 252.58984375 C295.93148438 252.39519531 294.98015625 252.20054687 294 252 C293.97112186 248.52085059 293.95324313 245.04173169 293.9375 241.5625 C293.92912109 240.56927734 293.92074219 239.57605469 293.91210938 238.55273438 C293.90727539 237.13637695 293.90727539 237.13637695 293.90234375 235.69140625 C293.89448853 234.37958374 293.89448853 234.37958374 293.88647461 233.04125977 C294 231 294 231 295 230 C292.69 230 290.38 230 288 230 C288.33 230.66 288.66 231.32 289 232 C289.09503971 233.41286385 289.13072853 234.8300385 289.1328125 236.24609375 C289.13410156 237.08333984 289.13539063 237.92058594 289.13671875 238.78320312 C289.13285156 239.65912109 289.12898438 240.53503906 289.125 241.4375 C289.12886719 242.30955078 289.13273437 243.18160156 289.13671875 244.08007812 C289.13478516 245.33788086 289.13478516 245.33788086 289.1328125 246.62109375 C289.13168457 247.3886499 289.13055664 248.15620605 289.12939453 248.94702148 C289 251 289 251 288 254 C291.3 254.33 294.6 254.66 298 255 C298 255.33 298 255.66 298 256 C283.15 256 268.3 256 253 256 C253 254.35 253 252.7 253 251 C252.01 251.66 251.02 252.32 250 253 C247.3125 252.625 247.3125 252.625 245 252 C245 248.7 245 245.4 245 242 C246.98 242.33 248.96 242.66 251 243 C251 243.66 251 244.32 251 245 C251.66 245 252.32 245 253 245 C253 243.02 253 241.04 253 239 C252.34 239.33 251.68 239.66 251 240 C249.00039988 240.039992 246.99952758 240.04346799 245 240 C245 237.03 245 234.06 245 231 C246.98 231.33 248.96 231.66 251 232 C251 232.66 251 233.32 251 234 C251.66 234 252.32 234 253 234 C253.33 232.02 253.66 230.04 254 228 C253.01 228.33 252.02 228.66 251 229 C248.94106379 229.22325814 246.87766347 229.40705759 244.8125 229.5625 C243.72582031 229.64628906 242.63914063 229.73007813 241.51953125 229.81640625 C240.68808594 229.87699219 239.85664063 229.93757812 239 230 C239.33 230.66 239.66 231.32 240 232 C240.09503971 233.41286385 240.13072853 234.8300385 240.1328125 236.24609375 C240.13410156 237.08333984 240.13539063 237.92058594 240.13671875 238.78320312 C240.13285156 239.65912109 240.12898437 240.53503906 240.125 241.4375 C240.12886719 242.30955078 240.13273438 243.18160156 240.13671875 244.08007812 C240.13478516 245.33788086 240.13478516 245.33788086 240.1328125 246.62109375 C240.13168457 247.3886499 240.13055664 248.15620605 240.12939453 248.94702148 C240 251 240 251 239 254 C242.3 254.33 245.6 254.66 249 255 C249 255.33 249 255.66 249 256 C217.65 256 186.3 256 154 256 C154 254.35 154 252.7 154 251 C153.34 251.66 152.68 252.32 152 253 C148.875 252.625 148.875 252.625 146 252 C146 248.7 146 245.4 146 242 C147.98 242.33 149.96 242.66 152 243 C152 243.66 152 244.32 152 245 C152.66 245 153.32 245 154 245 C154 243.02 154 241.04 154 239 C153.34 239.33 152.68 239.66 152 240 C150.00039988 240.039992 147.99952758 240.04346799 146 240 C146 237.03 146 234.06 146 231 C151.875 231.875 151.875 231.875 153 233 C153.66 231.35 154.32 229.7 155 228 C154.01 228.33 153.02 228.66 152 229 C149.94106379 229.22325814 147.87766347 229.40705759 145.8125 229.5625 C144.72582031 229.64628906 143.63914063 229.73007813 142.51953125 229.81640625 C141.68808594 229.87699219 140.85664063 229.93757812 140 230 C140.33 230.66 140.66 231.32 141 232 C141.09540112 233.49761762 141.13073486 234.99934828 141.1328125 236.5 C141.13410156 237.386875 141.13539063 238.27375 141.13671875 239.1875 C141.13285156 240.115625 141.12898437 241.04375 141.125 242 C141.12886719 242.928125 141.13273438 243.85625 141.13671875 244.8125 C141.13478516 246.1428125 141.13478516 246.1428125 141.1328125 247.5 C141.13168457 248.3146875 141.13055664 249.129375 141.12939453 249.96875 C141 252 141 252 140 254 C143.3 254.33 146.6 254.66 150 255 C150 255.33 150 255.66 150 256 C104.46 256 58.92 256 12 256 C12 255.67 12 255.34 12 255 C13.423125 254.5978125 13.423125 254.5978125 14.875 254.1875 C18.25267273 253.25013412 18.25267273 253.25013412 20 250 C19.91832511 246.42823885 19.91832511 246.42823885 19 243 C17.515 242.01 17.515 242.01 16 241 C16.33 237.7 16.66 234.4 17 231 C11.89662421 228.44831211 5.69311026 229.37954068 0 229 C0 209.53 0 190.06 0 170 C0.33 170 0.66 170 1 170 C1.309375 171.8871875 1.309375 171.8871875 1.625 173.8125 C3.64217882 182.76990246 8.48948012 191.55324037 16 197 C31.10088486 205.80135005 48.04746764 209.72872578 65.40625 205.74609375 C85.79416742 199.88149702 98.73647944 185.92951824 109 168 C115.62792103 155.73715142 120.07864269 142.71672057 124.44085693 129.51849365 C125.9785247 124.86633115 127.53875391 120.2218328 129.09783936 115.57681274 C129.89455068 113.20281155 130.69016457 110.82844178 131.48468018 108.45370483 C135.35563428 96.89498524 139.34808179 85.38015351 143.375 73.875 C143.99293265 72.10563595 144.61085296 70.3362676 145.22875977 68.56689453 C146.81092221 64.04166857 148.40173083 59.51956087 150 55 C150.62503418 53.23124512 150.62503418 53.23124512 151.26269531 51.42675781 C151.62202148 50.42225586 151.98134766 49.41775391 152.3515625 48.3828125 C152.80136475 47.12428467 152.80136475 47.12428467 153.26025391 45.84033203 C154 44 154 44 155 43 C165.13597511 42.73376426 174.76171275 45.92460935 182.5 52.5 C183.68737536 53.64558368 184.85709279 54.81004818 186 56 C186.763125 56.78375 187.52625 57.5675 188.3125 58.375 C194.55730775 68.08914539 194.43328632 80.39846362 192.34375 91.48046875 C189.31521772 101.57122501 182.60159432 111.7571934 174 118 C171.125 118.1875 171.125 118.1875 168 117 C158.66050625 113.53962046 147.63148486 111.59576531 138.125 115.5625 C134.72651466 117.75334346 134.72651466 117.75334346 133.8125 121.5 C134.01181819 125.22060628 134.30494985 126.49745343 137 129 C148.83059264 132.94353088 161.79872335 127.92044683 173 124 C182.0144375 133.64335174 186.80641012 145.13744112 187.375 158.4375 C186.70332309 173.16065782 181.55135846 187.9918652 170.5234375 198.09765625 C160.54438212 205.62056642 149.44362272 209.15054833 137 208 C131.54366638 206.84464033 126.94757998 205.06368528 123 201 C120.154892 196.58517724 119.34706976 193.22344192 120 188 C121.73114149 184.60183337 123.10884334 182.57804756 126.3125 180.5 C129.96344607 179.82075422 132.54386534 180.78018777 136 182 C136 180.35 136 178.7 136 177 C129.05275886 176.4874986 123.80706789 176.92388504 118 181 C114.41004848 184.70575641 114.07549712 187.8297946 113.75 192.875 C113.8410072 196.96274024 114.58206573 199.59977994 117 203 C126.08582245 210.24057815 136.74827957 211.47003471 148.0859375 210.82421875 C162.89110763 208.85945757 175.88631703 201.64628011 185.43359375 190.23828125 C191.76951751 181.1847044 194.38436786 171.09293491 194.3125 160.1875 C194.30404053 158.85356201 194.30404053 158.85356201 194.29541016 157.49267578 C194.05674979 144.61683062 189.78268552 134.58131039 180.625 125.375 C179.4265935 124.23943129 178.2218978 123.11025232 177 122 C179.54865561 119.37638393 181.95628892 117.03325843 184.875 114.8125 C193.13845884 108.03987137 198.49913818 97.20564462 201 87 C201.95641802 76.19025217 201.57552059 66.40200132 195.08203125 57.31640625 C185.25950233 45.61629658 172.84701211 41.19609893 158 39 C123.02687803 36.96291056 88.01772268 44.56078363 61 68 C60.18015625 68.67546875 59.3603125 69.3509375 58.515625 70.046875 C45.6866125 80.96348812 35.93681108 94.86440638 32.25 111.4375 C30.86102882 116.80778942 29.50993899 118.99157542 24.75 121.875 C23.78320312 122.38933594 22.81640625 122.90367188 21.8203125 123.43359375 C11.44918974 129.19373257 6.30914843 139.21681181 2.796875 150.0703125 C1.99057153 153.0346635 1.45060599 155.96291562 1 159 C0.67 159 0.34 159 0 159 C0 106.53 0 54.06 0 0 Z M507.0625 104.0625 C505.33334322 107.21566824 506.1409301 109.62508255 507 113 C509.82717213 115.33296251 509.82717213 115.33296251 513.0625 114.75 C516.099459 114.2406756 516.099459 114.2406756 518 112 C518.33015665 108.89652746 518.50531294 106.84218824 516.875 104.125 C513.58284003 102.14970402 510.40759186 102.22809478 507.0625 104.0625 Z M231 131 C230.31292969 131.4125 229.62585938 131.825 228.91796875 132.25 C218.37565777 139.34539859 211.78673218 152.45004171 208.625 164.5 C207.08202293 173.15339717 206.63087542 183.10260123 211 191 C215.08006585 195.45960685 219.09557202 197.38247267 225 198 C232.17009483 198.22041883 237.93960122 195.67748206 244 192 C244.66 191.34 245.32 190.68 246 190 C248.12683566 189.27500675 250.27676625 188.61666426 252.4375 188 C256.1287025 186.94419236 258.7938845 186.13741033 262 184 C262 183.34 262 182.68 262 182 C258.37 181.34 254.74 180.68 251 180 C251.886875 179.71125 252.77375 179.4225 253.6875 179.125 C260.29825404 174.88413892 262.66959091 166.44325236 264.4921875 159.05859375 C266.02335335 149.83626405 266.5498713 139.96675074 261 132 C255.58444572 126.71653241 250.62938759 126.64999779 243.35546875 126.72265625 C238.55402567 127.11951592 235.08179777 128.51204707 231 131 Z M433.65234375 137.76953125 C425.25393872 149.10638532 419.72450579 161.07334814 419.5625 175.3125 C419.5521875 176.06563477 419.541875 176.81876953 419.53125 177.59472656 C419.63368221 184.02234748 421.17967909 188.6595874 425.1875 193.8125 C430.07721294 197.61561006 434.86301786 198.24895276 440.875 197.9375 C447.17280239 197.13808855 453.47738372 194.52261628 458 190 C459.58602722 189.46383859 461.19430553 188.99191592 462.8125 188.5625 C466.58652287 187.48108679 469.8406108 186.42219838 473 184 C473 183.34 473 182.68 473 182 C472.28972656 181.86722656 471.57945312 181.73445313 470.84765625 181.59765625 C469.92855469 181.42105469 469.00945312 181.24445313 468.0625 181.0625 C467.14597656 180.88847656 466.22945313 180.71445313 465.28515625 180.53515625 C463 180 463 180 462 179 C462.7425 178.938125 463.485 178.87625 464.25 178.8125 C467.93981247 177.72232813 468.82265643 176.14457839 471 173 C472.50416097 169.65217954 472.50416097 169.65217954 473.6875 166.0625 C474.10386719 164.87785156 474.52023437 163.69320312 474.94921875 162.47265625 C477.8033643 153.04018267 478.40935007 143.06451757 474 134 C470.40694345 129.80385358 466.86434028 127.32558688 461.28515625 126.69140625 C450.46003516 126.25840141 441.0453189 129.58122381 433.65234375 137.76953125 Z M487 132 C486.14522958 134.07700861 486.14522958 134.07700861 486 136 C488.62776389 135.51337706 490.17954402 134.88030399 492.4375 133.375 C495 132 495 132 497.8125 132.3125 C498.534375 132.539375 499.25625 132.76625 500 133 C500.46077712 139.20672491 498.91435082 143.63872715 496.53515625 149.328125 C496.1823912 150.19894714 495.82962616 151.06976929 495.46617126 151.96697998 C494.34294421 154.7327678 493.20317979 157.49137057 492.0625 160.25 C491.29899636 162.11932896 490.5366146 163.98911656 489.77539062 165.859375 C488.70519446 168.48828346 487.63336874 171.11638534 486.55274963 173.74102783 C486.23249313 174.51903748 485.91223663 175.29704712 485.58227539 176.09863281 C485.30025772 176.78145325 485.01824005 177.46427368 484.72767639 178.16778564 C483.38174839 181.55669399 482.81547746 184.30895738 482.75 187.9375 C482.72421875 188.79214844 482.6984375 189.64679688 482.671875 190.52734375 C483.07386464 193.55662281 483.83954494 194.85398005 486 197 C490.22719602 198.47347975 494.06070847 198.32513938 498.25 196.875 C503.33911666 193.40514773 506.88571956 189.30581112 510 184 C510 183.01 510 182.02 510 181 C506.18110838 182.27296387 505.01772913 184.21735399 502.59765625 187.30859375 C500.84312518 189.16608019 499.37248381 190.0757794 497 191 C493.5 190.5 493.5 190.5 492 189 C491.39932287 182.70540421 493.19869241 177.95905217 495.5 172.15625 C495.85513672 171.22832642 496.21027344 170.30040283 496.57617188 169.34436035 C498.08826338 165.39455279 499.62739224 161.45543258 501.1640625 157.51513672 C502.28545918 154.62820776 503.39298862 151.73621905 504.5 148.84375 C504.84998047 147.96126587 505.19996094 147.07878174 505.56054688 146.16955566 C507.42324127 141.29801954 508.60768017 137.30369751 508 132 C505.67588486 128.7872526 504.20160662 127.2794434 500.3125 126.375 C495.48092403 127.28661811 491.01146807 129.12926955 487 132 Z M271 140 C271.33 140.99 271.66 141.98 272 143 C272.43570312 142.62488281 272.87140625 142.24976563 273.3203125 141.86328125 C274.5622138 140.79610632 275.80718886 139.73250137 277.0546875 138.671875 C278.28315635 137.61608249 279.49873704 136.54493118 280.6953125 135.453125 C282.25 134.0625 282.25 134.0625 285 132 C285.99 132.33 286.98 132.66 288 133 C290.83557623 141.5067287 282.95138587 153.30650714 279.4375 161.1875 C278.54785631 163.18683802 277.66011012 165.18692256 276.77784729 167.18952942 C275.9807637 168.9984218 275.17699132 170.80436253 274.37280273 172.61010742 C272.0257735 178.40567935 270.31410768 183.71265375 271 190 C272.81358749 193.69692835 274.05019966 195.52509983 277.75 197.375 C286.71794514 199.09960483 292.66583348 197.47557191 300.2421875 192.5390625 C303.78394586 189.98328815 306.47485778 187.59406746 309 184 C309.03738281 184.60328125 309.07476562 185.2065625 309.11328125 185.828125 C309.39507252 189.2538228 309.71846197 192.29615491 311 195.5 C314.3768561 198.03264207 317.85590909 198.26236939 322 198 C327.9441153 196.46012955 331.46130129 192.92772035 334.87890625 187.97265625 C336.18620209 185.67236218 336.83462522 183.64599645 337 181 C333.74520107 181.7394429 333.74520107 181.7394429 332.125 184.875 C329.94168512 188.08575717 328.54415087 189.49373588 325 191 C322.79456367 190.75495152 321.57580336 190.57580336 320 189 C319.66293777 183.77265101 320.51056647 179.45363184 322.1953125 174.5546875 C322.42523895 173.86295441 322.65516541 173.17122131 322.89205933 172.45852661 C323.37968788 170.99962227 323.87246624 169.54243013 324.37011719 168.08691406 C325.11443027 165.90597081 325.83969849 163.71940322 326.5625 161.53125 C334.3088763 138.36975226 334.3088763 138.36975226 342 130 C342 129.34 342 128.68 342 128 C337.62871808 127.56287181 335.60395312 127.57148828 331.9609375 130.15625 C329.07699642 132.72110714 327.42509531 135.30802429 325.75 138.8125 C325.46898437 139.39362549 325.18796875 139.97475098 324.8984375 140.57348633 C322.50616821 145.63597286 320.41324238 150.81980295 318.29907227 156.00292969 C307.2847769 183.00358159 307.2847769 183.00358159 295 190.9375 C291.44532583 192.1964471 288.74598781 192.35339508 285 192 C282 190 282 190 281.27929688 188.14355469 C280.05011594 178.70980589 285.73269673 169.11003834 289.5 160.75 C290.39606576 158.74025941 291.28920913 156.72927035 292.17980957 154.71710205 C292.9850088 152.90116134 293.79793605 151.08865299 294.61132812 149.27636719 C297.19095301 143.19012141 299.19610879 137.63962431 298 131 C295.78724478 127.9021427 294.4146605 126.34410661 290.6875 125.4375 C281.50670236 127.3590623 276.76235898 133.01047198 271 140 Z M324 228 C323.71278076 228.7113208 323.42556152 229.4226416 323.12963867 230.15551758 C321.82342682 233.37775247 320.50561818 236.59511836 319.1875 239.8125 C318.73568359 240.93205078 318.28386719 242.05160156 317.81835938 243.20507812 C317.37685547 244.27822266 316.93535156 245.35136719 316.48046875 246.45703125 C316.07723389 247.44678955 315.67399902 248.43654785 315.25854492 249.45629883 C314 252 314 252 311 255 C314.3 255 317.6 255 321 255 C320.01 254.67 319.02 254.34 318 254 C318.495 253.1028125 318.495 253.1028125 319 252.1875 C320.20787988 249.94613529 320.20787988 249.94613529 320 247 C322.64 247 325.28 247 328 247 C328.66 249.64 329.32 252.28 330 255 C333.3 255 336.6 255 340 255 C338.68 254.34 337.36 253.68 336 253 C335.25204163 250.99411164 334.52521112 248.97749449 333.9140625 246.92578125 C332.75681262 243.22159252 331.4046419 239.61641596 330 236 C329.75072754 235.32880127 329.50145508 234.65760254 329.24462891 233.96606445 C328.58285106 232.2742999 327.79906099 230.63141618 327 229 C326.01 228.67 325.02 228.34 324 228 Z M462 228 C461.88930176 228.78238037 461.77860352 229.56476074 461.66455078 230.37084961 C461.16068907 233.89447359 460.64303948 237.41593377 460.125 240.9375 C459.95097656 242.16919922 459.77695312 243.40089844 459.59765625 244.66992188 C459.42363281 245.83974609 459.24960937 247.00957031 459.0703125 248.21484375 C458.83465576 249.84087524 458.83465576 249.84087524 458.59423828 251.49975586 C458.39813965 252.32483643 458.20204102 253.14991699 458 254 C457.34 254.33 456.68 254.66 456 255 C458.97 255 461.94 255 465 255 C464.34 254.34 463.68 253.68 463 253 C462.8046875 250.3984375 462.8046875 250.3984375 462.875 247.375 C462.89304687 246.37210938 462.91109375 245.36921875 462.9296875 244.3359375 C462.95289063 243.56507813 462.97609375 242.79421875 463 242 C463.66 242 464.32 242 465 242 C465.2475 242.845625 465.495 243.69125 465.75 244.5625 C467.13973627 248.38427474 468.91120838 251.51868063 471 255 C471.99 255 472.98 255 474 255 C475.98 250.71 477.96 246.42 480 242 C480.66 246.29 481.32 250.58 482 255 C485.3 255 488.6 255 492 255 C491.01 254.34 490.02 253.68 489 253 C488.29223633 250.56982422 488.29223633 250.56982422 487.83203125 247.5546875 C487.66123047 246.47832031 487.49042969 245.40195313 487.31445312 244.29296875 C487.14880859 243.16503906 486.98316406 242.03710938 486.8125 240.875 C486.63525391 239.73933594 486.45800781 238.60367188 486.27539062 237.43359375 C485.83860123 234.6239755 485.41401852 231.81304871 485 229 C484.01 228.67 483.02 228.34 482 228 C479.36 233.61 476.72 239.22 474 245 C471.35873212 241.47830949 469.36593412 238.124404 467.3125 234.25 C466.83200195 233.34701172 466.83200195 233.34701172 466.34179688 232.42578125 C465.5581833 230.95211989 464.77867267 229.47627806 464 228 C463.34 228 462.68 228 462 228 Z M511 228 C507.61268673 235.34208832 507.61268673 235.34208832 504.4375 242.77734375 C504.04715576 243.7206958 504.04715576 243.7206958 503.64892578 244.68310547 C502.90252932 246.49564805 502.16591699 248.31221023 501.4296875 250.12890625 C500 253 500 253 497 255 C500.3 255 503.6 255 507 255 C506.34 254.67 505.68 254.34 505 254 C505.99 250.535 505.99 250.535 507 247 C509.64 247 512.28 247 515 247 C515.66 249.64 516.32 252.28 517 255 C520.3 255 523.6 255 527 255 C525.68 254.01 524.36 253.02 523 252 C521.62792969 249.45629883 521.62792969 249.45629883 520.421875 246.45703125 C519.98359375 245.38388672 519.5453125 244.31074219 519.09375 243.20507812 C518.6503125 242.08552734 518.206875 240.96597656 517.75 239.8125 C517.29109375 238.68134766 516.8321875 237.55019531 516.359375 236.38476562 C515.22891489 233.59394223 514.10964203 230.79915129 513 228 C512.34 228 511.68 228 511 228 Z M28 229 C29.36125 230.5159375 29.36125 230.5159375 30.75 232.0625 C36.05261584 238.34522019 38.4646649 242.45738204 38.3359375 250.86328125 C38 253 38 253 36 255 C39.96 255 43.92 255 48 255 C47.01 254.67 46.02 254.34 45 254 C45.02989883 245.29944187 46.44114121 238.86069925 52 232 C54.19921875 230.22265625 54.19921875 230.22265625 56 229 C53.03 229 50.06 229 47 229 C46.67 230.32 46.34 231.64 46 233 C45.03112419 235.01526169 44.0358679 237.01833966 43 239 C42.16121545 237.71186658 41.32913217 236.41936744 40.5 235.125 C40.0359375 234.40570313 39.571875 233.68640625 39.09375 232.9453125 C38 231 38 231 38 229 C34.7 229 31.4 229 28 229 Z M82 229 C83.485 229.99 83.485 229.99 85 231 C85.34057617 233.33837891 85.34057617 233.33837891 85.29296875 236.2265625 C85.28330078 237.2578125 85.27363281 238.2890625 85.26367188 239.3515625 C85.23853516 240.43179688 85.21339844 241.51203125 85.1875 242.625 C85.17396484 243.71296875 85.16042969 244.8009375 85.14648438 245.921875 C85.11104754 248.61507409 85.06164331 251.30729374 85 254 C84.34 254.33 83.68 254.66 83 255 C86.96 255 90.92 255 95 255 C94.01 254.34 93.02 253.68 92 253 C91.48828125 250.8359375 91.48828125 250.8359375 91.3125 248.375 C91.24675781 247.55773437 91.18101563 246.74046875 91.11328125 245.8984375 C91.07589844 245.27195313 91.03851563 244.64546875 91 244 C92.093125 243.896875 93.18625 243.79375 94.3125 243.6875 C98.41952562 242.93156984 98.41952562 242.93156984 101 240 C102.39935013 237.20129973 102.25265405 235.09501208 102 232 C100.47796315 229.98677503 99.60859689 229.10902692 97.09887695 228.65942383 C96.40238037 228.67513428 95.70588379 228.69084473 94.98828125 228.70703125 C94.23095703 228.71669922 93.47363281 228.72636719 92.69335938 228.73632812 C91.90767578 228.76146484 91.12199219 228.78660156 90.3125 228.8125 C89.51521484 228.82603516 88.71792969 228.83957031 87.89648438 228.85351562 C85.93070033 228.88882911 83.96526418 228.94263553 82 229 Z M114 229 C114.99 229.495 114.99 229.495 116 230 C116 237.92 116 245.84 116 254 C115.34 254.33 114.68 254.66 114 255 C117.96 255 121.92 255 126 255 C125.01 254.34 124.02 253.68 123 253 C122.62768555 250.78515625 122.62768555 250.78515625 122.63671875 248.0625 C122.63736328 247.08539063 122.63800781 246.10828125 122.63867188 245.1015625 C122.65478516 244.07804688 122.67089844 243.05453125 122.6875 242 C122.68266602 240.46472656 122.68266602 240.46472656 122.67773438 238.8984375 C122.73310839 231.26689161 122.73310839 231.26689161 125 229 C121.37 229 117.74 229 114 229 Z M167 229 C168.485 229.99 168.485 229.99 170 231 C170.37231445 233.21484375 170.37231445 233.21484375 170.36328125 235.9375 C170.36263672 236.91460937 170.36199219 237.89171875 170.36132812 238.8984375 C170.34521484 239.92195312 170.32910156 240.94546875 170.3125 242 C170.31572266 243.02351562 170.31894531 244.04703125 170.32226562 245.1015625 C170.26689161 252.73310839 170.26689161 252.73310839 168 255 C171.63 255 175.26 255 179 255 C178.34 254.34 177.68 253.68 177 253 C176.43479997 250.34462628 176.26211802 247.70855287 176 245 C179.49898456 246.41749908 180.77512548 247.92048053 182.6875 251.125 C184.88338498 254.27271009 184.88338498 254.27271009 188.38671875 255.5234375 C190.64130015 255.50220125 192.77501307 255.35599791 195 255 C194.278125 254.46375 193.55625 253.9275 192.8125 253.375 C189.67200141 250.72302341 187.37762052 248.35664073 185 245 C185.14012989 242.47766203 185.88000546 241.23998908 187 239 C187.51182773 234.3705194 187.51182773 234.3705194 185.73510742 230.2956543 C183.62640399 228.72102518 182.59360786 228.64826448 179.98828125 228.70703125 C179.23095703 228.71669922 178.47363281 228.72636719 177.69335938 228.73632812 C176.90767578 228.76146484 176.12199219 228.78660156 175.3125 228.8125 C174.51521484 228.82603516 173.71792969 228.83957031 172.89648438 228.85351562 C170.93070033 228.88882911 168.96526418 228.94263553 167 229 Z M202 229 C202.66 229.66 203.32 230.32 204 231 C204.25878906 233.21484375 204.25878906 233.21484375 204.265625 235.9375 C204.26949219 237.40316406 204.26949219 237.40316406 204.2734375 238.8984375 C204.26570312 239.92195312 204.25796875 240.94546875 204.25 242 C204.25773438 243.02351562 204.26546875 244.04703125 204.2734375 245.1015625 C204.27085937 246.07867187 204.26828125 247.05578125 204.265625 248.0625 C204.26336914 248.96097656 204.26111328 249.85945313 204.25878906 250.78515625 C204 253 204 253 202 255 C205.96 255 209.92 255 214 255 C213.01 254.67 212.02 254.34 211 254 C210.67 251.03 210.34 248.06 210 245 C213.51713236 246.75856618 215.4846204 248.56152926 217.75 251.6875 C219.61109785 254.00656433 220.42709924 254.89105494 223.3828125 255.453125 C225.62850472 255.43904542 227.77713316 255.31120136 230 255 C229.29875 254.484375 228.5975 253.96875 227.875 253.4375 C224.50532643 250.58060284 221.78843396 247.41128003 219 244 C219.31195313 243.4121875 219.62390625 242.824375 219.9453125 242.21875 C221.4349392 239.08501679 221.87631885 236.46307221 222 233 C220.59606101 230.62438377 220.59606101 230.62438377 218 229 C215.10550051 228.7093876 212.62050065 228.61813955 209.75 228.75 C209.00492188 228.76804688 208.25984375 228.78609375 207.4921875 228.8046875 C205.66090299 228.85164351 203.83028351 228.92338348 202 229 Z " fill="#000000" transform="translate(0,0)"/>
<path d="M0 0 C1.10593414 3.31780243 0.94034958 3.92990329 -0.11668396 7.10522461 C-0.38982925 7.94013428 -0.66297455 8.77504395 -0.94439697 9.63525391 C-1.40782501 11.00496338 -1.40782501 11.00496338 -1.88061523 12.40234375 C-2.35855278 13.84951782 -2.35855278 13.84951782 -2.84614563 15.32592773 C-3.90798551 18.53284505 -4.98294076 21.73519173 -6.05859375 24.9375 C-6.80371635 27.17437076 -7.54826044 29.4114343 -8.29225159 31.64868164 C-9.85956757 36.35497322 -11.43324254 41.05907694 -13.01147461 45.76171875 C-15.01623173 51.73660215 -17.00650847 57.71618151 -18.99198818 63.69749451 C-20.53162965 68.33075044 -22.07866933 72.96151087 -23.6278553 77.59158325 C-24.36301874 79.79128912 -25.09610625 81.99169006 -25.82693291 84.19284058 C-45.76127183 144.15312932 -45.76127183 144.15312932 -72.296875 157.7109375 C-73.63492188 158.34902344 -73.63492188 158.34902344 -75 159 C-76.05960938 159.51433594 -76.05960938 159.51433594 -77.140625 160.0390625 C-88.69700963 164.7586547 -102.41060089 162.38953866 -113.61328125 157.96875 C-123.78667801 153.39921215 -129.90598139 146.27648395 -134 136 C-138.3755677 123.49837799 -136.23050791 111.36432712 -130.90234375 99.5703125 C-126.99509986 91.91476346 -121.572185 85.18047713 -114 81 C-113.84144531 81.97839844 -113.68289062 82.95679687 -113.51953125 83.96484375 C-111.60882349 95.00887559 -109.03730865 103.34730086 -99.95703125 110.625 C-93.98812139 114.81872509 -87.05791192 114.83557144 -80 114 C-72.85408153 111.93829243 -68.85676484 108.3911167 -65.05859375 102.0859375 C-62.40387454 96.85486717 -62.55513067 91.74210968 -63 86 C-64.66308259 81.01075222 -67.47689513 77.65732411 -72 75 C-82.04840565 70.24223217 -94.17834935 71.72075931 -105 72 C-100.54437134 50.33053276 -88.05699417 32.60591286 -69.6796875 20.34375 C-48.70269393 6.82450428 -25.04825091 -0.50300333 0 0 Z " fill="#000000" transform="translate(144,42)"/>
<path d="M0 0 C3.31107568 2.55379803 5.2428643 4.79282168 6.16796875 8.86328125 C7.10712913 16.50863374 5.30278111 21.68921045 0.73046875 27.77734375 C-4.59834572 33.79787933 -11.08341182 36.29037567 -18.97265625 37.2421875 C-31.60245765 37.71504238 -42.17391479 33.2709665 -52.83203125 26.86328125 C-52.38357227 21.91154666 -49.85021051 18.73801786 -46.83203125 14.98828125 C-46.33654785 14.36840332 -45.84106445 13.74852539 -45.33056641 13.10986328 C-34.34733979 -0.28354203 -16.5430316 -10.26443965 0 0 Z " fill="#000000" transform="translate(480.83203125,75.13671875)"/>
<path d="M0 0 C0.33 0.66 0.66 1.32 1 2 C-0.58199631 2.64910154 -2.16565724 3.29414694 -3.75 3.9375 C-4.63171875 4.29714844 -5.5134375 4.65679687 -6.421875 5.02734375 C-10.7740579 6.66930366 -14.39121525 7.15855772 -19.0625 7.1875 C-20.62677734 7.20876953 -20.62677734 7.20876953 -22.22265625 7.23046875 C-25 7 -25 7 -28 5 C-27.9375 2.1875 -27.9375 2.1875 -27 -1 C-18.07259653 -6.35644208 -9.20714833 -3.65617194 0 0 Z " fill="#000000" transform="translate(167,120)"/>
<path d="M0 0 C3.99723936 2.65670177 6.38792273 5.67548694 7.921875 10.27734375 C8.6178983 17.12157287 7.23989441 20.94264781 2.921875 26.27734375 C-1.49448882 30.89445138 -5.73798419 33.00487489 -12.078125 33.27734375 C-18.66138343 32.5054374 -22.59281985 29.50504353 -26.640625 24.3984375 C-30.84279453 18.19795366 -32.2301456 11.89505391 -32.140625 4.46484375 C-32.13160156 3.48902344 -32.12257812 2.51320313 -32.11328125 1.5078125 C-32.10167969 0.77175781 -32.09007812 0.03570312 -32.078125 -0.72265625 C-22.53737955 -4.52072371 -9.29128742 -4.50146856 0 0 Z " fill="#000000" transform="translate(70.078125,119.72265625)"/>
<path d="M0 0 C3.91095659 1.99893337 5.32343545 4.25847976 6.8125 8.25 C9.57839243 18.04189506 7.40795783 27.08273244 2.94921875 36.1328125 C1.17525268 38.9684185 0.2369571 39.9210143 -3 41 C-3 43.31 -3 45.62 -3 48 C-3.99 47.505 -3.99 47.505 -5 47 C-8.04173894 46.83329727 -8.04173894 46.83329727 -11 47 C-12.67991921 48.67991921 -12.12293192 50.95014649 -12.1875 53.25 C-12.72612265 59.53393097 -12.72612265 59.53393097 -15.5625 62.125 C-19.49909684 64.27223464 -22.5067096 65.42152625 -27 65 C-30.39915761 63.58902892 -32.23730591 62.34445709 -34.0703125 59.11328125 C-38.48883119 48.02717804 -34.39447072 35.54151373 -30 25 C-24.1426378 12.98181809 -15.10721374 -1.9493179 0 0 Z " fill="#000000" transform="translate(251,130)"/>
<path d="M0 0 C4.10551298 3.53530284 5.0453812 6.90378873 5.5703125 12.12109375 C5.91340088 22.56241683 3.78864344 31.65521831 -2.75 39.9375 C-3.74 40.4325 -3.74 40.4325 -4.75 40.9375 C-5.40555119 43.46483235 -5.40555119 43.46483235 -5.75 45.9375 C-6.86375 45.89625 -7.9775 45.855 -9.125 45.8125 C-12.79366025 45.52628141 -12.79366025 45.52628141 -14.75 47.9375 C-14.80275424 49.98457679 -14.80275424 49.98457679 -14.5625 52.25 C-14.47794311 56.00674168 -14.5733421 56.70027368 -16.9375 59.875 C-20.94883008 62.81664206 -23.22976273 63.9375 -28.25 63.9375 C-32.95727504 62.59256427 -34.02653393 60.94259716 -36.75 56.9375 C-40.58405118 45.43534645 -35.91977557 32.04798612 -30.9375 21.5625 C-25.02414287 10.52126926 -14.53539412 -5.61594773 0 0 Z " fill="#000000" transform="translate(464.75,131.0625)"/>
<path d="M0 0 C2 1.5 2 1.5 3 4 C3.48114427 16.99089517 -6.77640041 29.24897672 -15.07421875 38.25 C-18.73756876 42.04592839 -22.30427597 45.54541699 -27 48 C-30.39288744 47.90020919 -32.43085984 46.11036513 -35 44 C-33.24650811 28.41783344 -24.89669481 13.26665503 -12.82421875 3.26953125 C-8.49429112 0.25619832 -5.35578361 -0.5842673 0 0 Z " fill="#000000" transform="translate(568,130)"/>
<path d="M0 0 C4.67107849 4.56727674 5.89490791 7.34713473 6.14453125 13.6484375 C6.1286497 17.91143044 5.21304925 21.72035166 3.875 25.75 C3.5361377 26.78870239 3.5361377 26.78870239 3.19042969 27.84838867 C-0.79353562 39.65994656 -6.77990898 53.32990973 -18.125 59.75 C-22.02389805 61.32351154 -24.94905957 61.29935825 -29 60 C-32.45655232 57.06944478 -34.82010356 54.97591172 -35.23828125 50.3828125 C-35.59606841 34.67783938 -29.29696036 20.75979523 -19.0625 8.9375 C-13.95621562 3.62200519 -7.9075636 -1.75723636 0 0 Z " fill="#000000" transform="translate(391,131)"/>
<path d="M0 0 C1.65 0 3.3 0 5 0 C4.01 3.3 3.02 6.6 2 10 C0.35 8.68 -1.3 7.36 -3 6 C-1.125 1.125 -1.125 1.125 0 0 Z " fill="#000000" transform="translate(519,172)"/>
<path d="M0 0 C1.32 0.66 2.64 1.32 4 2 C4 2.66 4 3.32 4 4 C2.35 4.33 0.7 4.66 -1 5 C-0.67 3.35 -0.34 1.7 0 0 Z " fill="#000000" transform="translate(531,177)"/>
<path d="M0 0 C1.32 0.33 2.64 0.66 4 1 C4.02894547 4.45831586 4.04678 7.91660072 4.0625 11.375 C4.07087891 12.35984375 4.07925781 13.3446875 4.08789062 14.359375 C4.09111328 15.30039063 4.09433594 16.24140625 4.09765625 17.2109375 C4.10289307 18.08024902 4.10812988 18.94956055 4.11352539 19.84521484 C4 22 4 22 3 24 C5.31 24.33 7.62 24.66 10 25 C10 25.33 10 25.66 10 26 C6.7 26 3.4 26 0 26 C0 17.42 0 8.84 0 0 Z " fill="#000000" transform="translate(0,230)"/>
<path d="M0 0 C1.98 0.99 1.98 0.99 4 2 C4 3.65 4 5.3 4 7 C2.02 7.99 2.02 7.99 0 9 C0 6.03 0 3.06 0 0 Z " fill="#000000" transform="translate(9,231)"/>
<path d="M0 0 C4 1 4 1 6 4 C5.6758631 7.32240324 5.39223697 8.60776303 3 11 C2.01 11 1.02 11 0 11 C0 7.37 0 3.74 0 0 Z " fill="#000000" transform="translate(91,231)"/>
<path d="M0 0 C4 1 4 1 6 3 C6.25 6 6.25 6 6 9 C5.34 9.66 4.68 10.32 4 11 C2.68 11 1.36 11 0 11 C0 7.37 0 3.74 0 0 Z " fill="#000000" transform="translate(176,231)"/>
<path d="M0 0 C2.475 0.495 2.475 0.495 5 1 C7.21538462 6.41538462 7.21538462 6.41538462 6.125 9.375 C5.75375 9.91125 5.3825 10.4475 5 11 C3.35 11 1.7 11 0 11 C0 7.37 0 3.74 0 0 Z " fill="#000000" transform="translate(210,231)"/>
<path d="M0 0 C4.63416796 0.15447227 7.08208416 0.37503602 10.9375 3 C13.64785382 6.94233283 14.31063532 10.2455538 14 15 C12.43818681 18.670261 11.34089404 19.7727373 8 22 C4.4375 22.25 4.4375 22.25 1 22 C-1 20 -1 20 -1.24291992 18.04467773 C-1.23881104 17.26552002 -1.23470215 16.4863623 -1.23046875 15.68359375 C-1.22853516 14.83732422 -1.22660156 13.99105469 -1.22460938 13.11914062 C-1.21236328 12.23419922 -1.20011719 11.34925781 -1.1875 10.4375 C-1.18685547 9.54869141 -1.18621094 8.65988281 -1.18554688 7.74414062 C-1.14021097 1.14021097 -1.14021097 1.14021097 0 0 Z " fill="#000000" transform="translate(398,231)"/>
<path d="M0 0 C2 3 2 3 3 6 C1.35 6 -0.3 6 -2 6 C-1.34 4.02 -0.68 2.04 0 0 Z " fill="#000000" transform="translate(324,238)"/>
<path d="M0 0 C2 3 2 3 2 6 C0.68 6 -0.64 6 -2 6 C-1.125 1.125 -1.125 1.125 0 0 Z " fill="#000000" transform="translate(511,238)"/>
<path d="M0 0 C4 1 4 1 5.875 3.25 C7 6 7 6 6.1875 8.8125 C5.795625 9.534375 5.40375 10.25625 5 11 C3.35 10.67 1.7 10.34 0 10 C0 6.7 0 3.4 0 0 Z " fill="#000000" transform="translate(9,242)"/>
</svg>
